<svg width="24" height="24" viewBox="0 0 24 24" fill="none" xmlns="http://www.w3.org/2000/svg">
<g id="basil:edit-outline">
<path id="Vector" fill-rule="evenodd" clip-rule="evenodd" d="M21.455 5.41601C21.55 5.56022 21.5924 5.7328 21.5749 5.9046C21.5574 6.0764 21.4811 6.23691 21.359 6.35901L12.166 15.551C12.072 15.645 11.9546 15.7123 11.826 15.746L7.99702 16.746C7.87045 16.779 7.73744 16.7784 7.61121 16.7441C7.48498 16.7098 7.3699 16.6431 7.27741 16.5506C7.18492 16.4581 7.11822 16.3431 7.08395 16.2168C7.04967 16.0906 7.049 15.9576 7.08202 15.831L8.08202 12.003C8.11121 11.8881 8.16628 11.7814 8.24302 11.691L17.47 2.47001C17.6106 2.32956 17.8013 2.25067 18 2.25067C18.1988 2.25067 18.3894 2.32956 18.53 2.47001L21.359 5.29801C21.3949 5.33402 21.4271 5.37355 21.455 5.41601ZM19.768 5.82801L18 4.06101L9.48202 12.579L8.85702 14.972L11.25 14.347L19.768 5.82801Z" fill="#FEFEFE"/>
<path id="Vector_2" d="M19.641 17.16C19.9143 14.824 20.0016 12.4699 19.902 10.12C19.8998 10.0646 19.9091 10.0094 19.9292 9.95782C19.9494 9.9062 19.9799 9.85928 20.019 9.82001L21.003 8.83601C21.0299 8.80897 21.064 8.79027 21.1013 8.78215C21.1385 8.77404 21.1773 8.77686 21.213 8.79027C21.2487 8.80368 21.2798 8.82712 21.3025 8.85776C21.3252 8.88841 21.3386 8.92495 21.341 8.96301C21.5262 11.7542 21.4559 14.5566 21.131 17.335C20.895 19.357 19.271 20.942 17.258 21.167C13.7633 21.554 10.2366 21.554 6.74199 21.167C4.72999 20.942 3.10499 19.357 2.86899 17.335C2.45439 13.7904 2.45439 10.2096 2.86899 6.66501C3.10499 4.64301 4.72899 3.05801 6.74199 2.83301C9.39436 2.53889 12.0667 2.46764 14.731 2.62001C14.7691 2.62275 14.8057 2.63635 14.8363 2.65922C14.8669 2.68209 14.8904 2.71325 14.9038 2.74903C14.9173 2.78481 14.9202 2.82369 14.9123 2.86108C14.9044 2.89847 14.8859 2.93281 14.859 2.96001L13.866 3.95201C13.8271 3.99076 13.7807 4.02113 13.7296 4.04125C13.6785 4.06137 13.6239 4.07082 13.569 4.06901C11.3458 3.99343 9.11995 4.07866 6.90899 4.32401C6.26294 4.39552 5.65985 4.68273 5.19715 5.13926C4.73445 5.59579 4.43917 6.19497 4.35899 6.84001C3.95804 10.2683 3.95804 13.7317 4.35899 17.16C4.43917 17.805 4.73445 18.4042 5.19715 18.8608C5.65985 19.3173 6.26294 19.6045 6.90899 19.676C10.264 20.051 13.736 20.051 17.092 19.676C17.7381 19.6045 18.3411 19.3173 18.8038 18.8608C19.2665 18.4042 19.5608 17.805 19.641 17.16Z" fill="#FEFEFE"/>
</g>
</svg>
