<svg width="24" height="24" viewBox="0 0 24 24" fill="none" xmlns="http://www.w3.org/2000/svg">
<g id="fluent:person-32-regular">
<path id="Vector" d="M17.25 6.75C17.25 8.14239 16.6969 9.47774 15.7123 10.4623C14.7277 11.4469 13.3924 12 12 12C10.6076 12 9.27226 11.4469 8.28769 10.4623C7.30312 9.47774 6.75 8.14239 6.75 6.75C6.75 5.35761 7.30312 4.02226 8.28769 3.03769C9.27226 2.05312 10.6076 1.5 12 1.5C13.3924 1.5 14.7277 2.05312 15.7123 3.03769C16.6969 4.02226 17.25 5.35761 17.25 6.75ZM15.75 6.75C15.75 5.75544 15.3549 4.80161 14.6517 4.09835C13.9484 3.39509 12.9946 3 12 3C11.0054 3 10.0516 3.39509 9.34835 4.09835C8.64509 4.80161 8.25 5.75544 8.25 6.75C8.25 7.74456 8.64509 8.69839 9.34835 9.40165C10.0516 10.1049 11.0054 10.5 12 10.5C12.9946 10.5 13.9484 10.1049 14.6517 9.40165C15.3549 8.69839 15.75 7.74456 15.75 6.75ZM5.625 13.5C4.92881 13.5 4.26113 13.7766 3.76884 14.2688C3.27656 14.7611 3 15.4288 3 16.125V16.5C3 18.2948 4.14225 19.8127 5.76375 20.8447C7.39425 21.8827 9.6015 22.5 12 22.5C14.3985 22.5 16.605 21.8827 18.2362 20.8447C19.8577 19.8127 21 18.2948 21 16.5V16.125C21 15.4288 20.7234 14.7611 20.2312 14.2688C19.7389 13.7766 19.0712 13.5 18.375 13.5H5.625ZM4.5 16.125C4.5 15.8266 4.61853 15.5405 4.8295 15.3295C5.04048 15.1185 5.32663 15 5.625 15H18.375C18.6734 15 18.9595 15.1185 19.1705 15.3295C19.3815 15.5405 19.5 15.8266 19.5 16.125V16.5C19.5 17.6047 18.795 18.7118 17.4307 19.5795C16.0755 20.442 14.1578 21 12 21C9.84225 21 7.9245 20.442 6.56925 19.5795C5.20425 18.7125 4.5 17.604 4.5 16.5V16.125Z" fill="#FEFEFE"/>
</g>
</svg>
