<svg width="218" height="44" viewBox="0 0 218 44" fill="none" xmlns="http://www.w3.org/2000/svg">
<path d="M83.8915 28.5581L80.906 23.4619H77.7684V28.5581H76V15.2472H81.3244C82.4653 15.2472 83.4414 15.6529 84.2528 16.4642C85.0641 17.2629 85.4698 18.2326 85.4698 19.3736C85.4698 20.2356 85.2099 21.0216 84.6901 21.7315C84.183 22.4414 83.5238 22.9422 82.7125 23.2337L85.8501 28.5581H83.8915ZM77.7684 16.9016V21.8646H81.3244C81.9836 21.8646 82.5414 21.6238 82.9977 21.142C83.4668 20.6476 83.7013 20.0581 83.7013 19.3736C83.7013 18.689 83.4668 18.1059 82.9977 17.6241C82.5414 17.1424 81.9836 16.9016 81.3244 16.9016H77.7684Z" fill="#FEFEFE"/>
<path d="M98.0516 26.8847H104.232V28.5581H96.2832V15.2472H104.137V16.9206H98.0516V21.0089H103.661V22.6633H98.0516V26.8847Z" fill="#FEFEFE"/>
<path d="M119.323 28.8053C118.08 28.8053 117.015 28.5137 116.128 27.9306C115.253 27.3474 114.638 26.5488 114.283 25.5346L115.805 24.6599C116.324 26.2699 117.51 27.0749 119.361 27.0749C120.273 27.0749 120.971 26.8911 121.452 26.5234C121.934 26.1431 122.175 25.6424 122.175 25.0212C122.175 24.3874 121.934 23.912 121.452 23.595C120.971 23.2781 120.166 22.9422 119.037 22.5872C118.48 22.4097 118.055 22.2703 117.763 22.1689C117.472 22.0548 117.104 21.89 116.66 21.6745C116.229 21.4463 115.906 21.2181 115.691 20.9899C115.475 20.749 115.279 20.4385 115.101 20.0581C114.936 19.6778 114.854 19.2468 114.854 18.7651C114.854 17.6115 115.26 16.6987 116.071 16.0268C116.882 15.3423 117.871 15 119.037 15C120.09 15 121.002 15.2662 121.776 15.7987C122.562 16.3311 123.151 17.0347 123.544 17.9094L122.061 18.7651C121.49 17.396 120.483 16.7114 119.037 16.7114C118.315 16.7114 117.732 16.8889 117.288 17.2438C116.844 17.5988 116.622 18.0805 116.622 18.689C116.622 19.2722 116.832 19.7159 117.25 20.0201C117.668 20.3244 118.391 20.6413 119.418 20.9709C119.785 21.085 120.045 21.1674 120.197 21.2181C120.349 21.2688 120.584 21.3575 120.901 21.4843C121.23 21.6111 121.471 21.7125 121.623 21.7886C121.776 21.8646 121.978 21.9724 122.232 22.1118C122.498 22.2513 122.695 22.3844 122.821 22.5112C122.948 22.6379 123.094 22.7964 123.259 22.9865C123.436 23.164 123.563 23.3478 123.639 23.538C123.715 23.7281 123.779 23.95 123.829 24.2035C123.893 24.4444 123.924 24.7043 123.924 24.9832C123.924 26.1495 123.5 27.0812 122.65 27.7785C121.801 28.463 120.692 28.8053 119.323 28.8053Z" fill="#FEFEFE"/>
<path d="M136.352 26.8847H142.095V28.5581H134.584V15.2472H136.352V26.8847Z" fill="#FEFEFE"/>
<path d="M152.527 15.2472H154.296V28.5581H152.527V15.2472Z" fill="#FEFEFE"/>
<path d="M174.081 15.2472H175.85V28.5581H174.424L167.578 18.613V28.5581H165.81V15.2472H167.236L174.081 25.1733V15.2472Z" fill="#FEFEFE"/>
<path d="M197.035 28.5581H194.867L189.124 22.1689V28.5581H187.356V15.2472H189.124V21.2561L194.677 15.2472H196.844L190.969 21.7125L197.035 28.5581Z" fill="#FEFEFE"/>
<path fill-rule="evenodd" clip-rule="evenodd" d="M47.9256 26.3426C47.9385 27.5342 47.8994 28.7238 47.8081 29.9113C46.943 34.9136 44.1238 38.538 39.3507 40.7846C33.4543 43.0027 28.09 42.1848 23.2579 38.3312C21.5049 36.6572 20.252 34.6757 19.3816 32.4763C19.2148 32.0549 18.9912 31.6088 18.9117 31.2496C18.4153 29.0068 18.4545 26.7763 19.0292 24.5583C19.0974 24.3042 19.1709 24.0653 19.2641 23.7777C20.0477 21.3598 21.3986 19.278 23.3167 17.5325C24.4967 16.3562 25.7301 15.2409 27.0168 14.1868C28.3873 15.4136 29.7185 16.6774 31.0106 17.9786C29.5209 19.4114 28.0526 20.8612 26.6057 22.3279C25.8556 23.1574 25.2878 24.0868 24.9024 25.1159C24.8022 25.3836 24.7537 25.6133 24.6675 25.8966C24.5135 26.4024 24.4353 26.9229 24.4326 27.4579C24.2971 28.1068 24.4046 28.6891 24.5008 29.3784L24.55 29.5768C25.4091 33.0874 27.68 35.2992 31.363 36.2123C34.9795 36.7701 37.9749 35.7478 40.3491 33.1454C41.006 32.2978 41.6222 31.4489 41.9443 30.4379L41.9936 30.2459C42.1104 29.7309 42.1691 29.2104 42.1698 28.6846C42.3731 26.2714 41.6487 24.1525 39.9967 22.3279C35.6013 18.1919 31.2355 14.0099 26.8993 9.78176C23.8228 7.28747 20.4163 6.80422 16.6799 8.33199C12.801 10.5649 11.2543 13.8176 12.04 18.0901C12.8159 20.2037 14.108 21.9881 15.9164 23.4431C15.8405 24.4078 15.7426 25.3743 15.6227 26.3426L15.5734 27.0365C15.5734 27.0365 15.3679 29.4846 15.2703 30.692C13.6691 29.1159 12.0441 27.5547 10.3955 26.0081C5.64612 21.0416 4.74555 15.5028 7.6938 9.39144C11.1083 3.98802 16.1397 1.55314 22.7881 2.08681C25.1805 2.48447 27.3732 3.33947 29.3661 4.6518C30.7495 5.68596 32.0807 6.78258 33.3599 7.94167C34.9676 6.35859 36.7295 4.96458 38.6459 3.75963C44.7985 0.895743 50.5151 1.5277 55.7958 5.65549C59.8153 9.41226 61.2836 13.9289 60.2007 19.2053C59.7008 20.8152 58.996 22.3393 58.0863 23.7777C55.87 26.3285 53.4816 28.7448 50.921 31.0265C51.0215 30.0296 51.0802 29.026 51.0972 28.0155C51.0086 26.4813 50.8715 24.9571 50.686 23.4431C52.1465 22.1556 53.3211 20.6687 54.21 18.9823C55.5852 14.7364 54.391 11.335 50.6273 8.77807C45.3663 6.38841 41.0397 7.44786 37.6474 11.9564C37.5691 12.0679 37.5691 12.1795 37.6474 12.291C39.4812 13.9402 41.2823 15.613 43.0508 17.3094C43.968 18.2346 44.8295 19.2011 45.635 20.209C46.8487 22.1057 47.6122 24.1503 47.9256 26.3426Z" fill="#3DA466"/>
</svg>
